<?xml version="1.0" encoding="UTF-8" standalone="no" ?>
<!DOCTYPE svg PUBLIC "-//W3C//DTD SVG 1.1//EN" "http://www.w3.org/Graphics/SVG/1.1/DTD/svg11.dtd">
<svg xmlns="http://www.w3.org/2000/svg" xmlns:xlink="http://www.w3.org/1999/xlink" version="1.1" width="200" height="35" viewBox="0 0 200 35" xml:space="preserve">
<desc>Created with Fabric.js 5.2.4</desc>
<defs>
</defs>
<g transform="matrix(1 0 0 1 100 17.5)" id="4b6a4ce3-e3c7-432f-9328-b10b15b3bbbd"  >
<rect style="stroke: none; stroke-width: 1; stroke-dasharray: none; stroke-linecap: butt; stroke-dashoffset: 0; stroke-linejoin: miter; stroke-miterlimit: 4; fill: rgb(255,255,255); fill-rule: nonzero; opacity: 1; visibility: hidden;" vector-effect="non-scaling-stroke"  x="-100" y="-17.5" rx="0" ry="0" width="200" height="35" />
</g>
<g transform="matrix(Infinity NaN NaN Infinity 0 0)" id="8632d3ac-ce4f-4a84-b694-38c5c1513122"  >
</g>
<g transform="matrix(1 0 0 1 100 17.5)"  >
<g style="" vector-effect="non-scaling-stroke"   >
		<g transform="matrix(1 0 0 1 0 0)"  >
<rect style="stroke: none; stroke-width: 1; stroke-dasharray: none; stroke-linecap: butt; stroke-dashoffset: 0; stroke-linejoin: miter; stroke-miterlimit: 4; fill: rgb(255,255,255); fill-rule: nonzero; opacity: 1; visibility: hidden;" vector-effect="non-scaling-stroke"  x="-100" y="-35" rx="0" ry="0" width="200" height="70" />
</g>
		<g transform="matrix(1 0 0 1 18.5 0.48)"  >
<path style="stroke: none; stroke-width: 1; stroke-dasharray: none; stroke-linecap: butt; stroke-dashoffset: 0; stroke-linejoin: miter; stroke-miterlimit: 4; fill: rgb(255,255,255); fill-rule: nonzero; opacity: 1;" vector-effect="non-scaling-stroke"  transform=" translate(-92.37, -12.98)" d="M 37 6.299 L 42.227000000000004 6.299 C 42.973000000000006 6.299 43.661 6.454000000000001 44.289 6.765000000000001 C 44.918 7.0760000000000005 45.412 7.500000000000001 45.773 8.035 C 46.13400000000001 8.57 46.315000000000005 9.155000000000001 46.315000000000005 9.789 C 46.315000000000005 10.461 46.150000000000006 11.043 45.82000000000001 11.535 C 45.49000000000001 12.026 45.05800000000001 12.403 44.52300000000001 12.664 L 44.52300000000001 12.814 C 45.22000000000001 13.062 45.77300000000001 13.457 46.18400000000001 13.999 C 46.59400000000001 14.540000000000001 46.80000000000001 15.190000000000001 46.80000000000001 15.949 C 46.80000000000001 16.684 46.60400000000001 17.334 46.21200000000001 17.9 C 45.8124946117713 18.47261399194907 45.263581882977434 18.924680114528517 44.62500000000001 19.206999999999997 C 43.96000000000001 19.511999999999997 43.22200000000001 19.663999999999998 42.413000000000004 19.663999999999998 L 37 19.663999999999998 L 37 6.299 z M 42.04 11.749 C 42.588 11.749 43.025999999999996 11.597000000000001 43.356 11.292 C 43.686 10.987 43.851 10.604 43.851 10.144 C 43.851 9.696 43.692 9.32 43.375 9.014 C 43.057 8.709999999999999 42.637 8.556999999999999 42.115 8.556999999999999 L 39.52 8.556999999999999 L 39.52 11.748999999999999 L 42.040000000000006 11.748999999999999 z M 42.32 17.368000000000002 C 42.93 17.368000000000002 43.406 17.209000000000003 43.748 16.892000000000003 C 44.089999999999996 16.575000000000003 44.260999999999996 16.161 44.260999999999996 15.651000000000003 C 44.260999999999996 15.141000000000004 44.086999999999996 14.724000000000004 43.739 14.400000000000004 C 43.39 14.076000000000004 42.891999999999996 13.915000000000004 42.245 13.915000000000004 L 39.52 13.915000000000004 L 39.52 17.368000000000006 L 42.32 17.368000000000006 z M 55.247 19.963 C 53.94 19.963 52.755 19.655 51.691 19.039 C 50.64123974466227 18.437436068192067 49.77363366378182 17.56326506674741 49.18 16.509 C 48.57 15.439 48.265 14.263 48.265 12.981 C 48.265 11.7 48.57 10.524000000000001 49.18 9.453 C 49.773502968618494 8.399232741703395 50.640738353197555 7.525432627121546 51.69 6.923999999999999 C 52.756 6.308 53.94 6 55.248 6 C 56.553999999999995 6 57.739999999999995 6.308 58.803999999999995 6.924 C 59.85339254225101 7.525706769818051 60.720640561176886 8.39986513152422 61.31399999999999 9.453999999999995 C 61.92399999999999 10.524000000000001 62.22899999999999 11.700000000000001 62.22899999999999 12.981000000000002 C 62.22899999999999 14.263000000000002 61.92399999999999 15.439000000000002 61.31399999999999 16.509 C 60.72064056117689 17.563134868475778 59.853392542251 18.43729323018195 58.803999999999995 19.039 C 57.739999999999995 19.655 56.553999999999995 19.963 55.248 19.963 z M 55.247 17.573 C 56.03725382607441 17.581045252669785 56.81580599284838 17.381752448243144 57.505 16.995 C 58.18412898528843 16.614711892067398 58.743491838805035 16.05223184617826 59.120000000000005 15.371000000000002 C 59.51200000000001 14.674000000000001 59.708000000000006 13.877 59.708000000000006 12.981 C 59.708000000000006 12.084999999999999 59.51200000000001 11.289 59.120000000000005 10.592 C 58.743491838805035 9.910768153821744 58.18412898528843 9.348288107932605 57.505 8.968 C 56.81590184613322 8.580898927213418 56.03734397352405 8.381259862447825 55.247 8.389 C 54.45907656121688 8.380311526853385 53.68285735227291 8.5800586032883 52.997 8.968 C 52.32213633657801 9.350523441666912 51.766555197601846 9.912681553627843 51.392 10.592000000000002 C 51 11.289 50.804 12.085 50.804 12.982000000000001 C 50.804 13.877 51 14.674000000000001 51.392 15.371 C 51.766555197601846 16.05031844637216 52.32213633657801 16.61247655833309 52.997 16.995 C 53.68295405676896 17.382592625817786 54.459167445731715 17.581993220849107 55.247 17.573 z M 70.6 19.963 C 69.29299999999999 19.963 68.10799999999999 19.655 67.044 19.039 C 65.99460745774898 18.43729323018195 65.12735943882309 17.563134868475778 64.53399999999999 16.509 C 63.92399999999999 15.439 63.61899999999999 14.263 63.61899999999999 12.981 C 63.61899999999999 11.7 63.92399999999999 10.524000000000001 64.53299999999999 9.453 C 65.1267772065035 8.39910255116826 65.99437064762797 7.525289802222102 67.04399999999998 6.924 C 68.108 6.308 69.294 6 70.6 6 C 71.907 6 73.092 6.308 74.15599999999999 6.924 C 75.205392542251 7.52570676981805 76.07264056117688 8.39986513152422 76.666 9.453999999999997 C 77.276 10.524000000000001 77.581 11.700000000000001 77.581 12.981000000000002 C 77.581 14.263000000000002 77.276 15.439000000000002 76.667 16.509 C 76.07336633621819 17.56326506674741 75.20576025533774 18.437436068192067 74.156 19.039 C 73.09200000000001 19.655 71.906 19.963 70.60000000000001 19.963 z M 70.6 17.573 C 71.39059202203114 17.58122048343361 72.16951127233217 17.381921976716477 72.859 16.995 C 73.53776045608141 16.61456381853356 74.09676350279597 16.052097308084733 74.473 15.371000000000002 C 74.865 14.674000000000001 75.06099999999999 13.877 75.06099999999999 12.981 C 75.06099999999999 12.084999999999999 74.865 11.289 74.473 10.592 C 74.09676350279597 9.91090269191527 73.53776045608141 9.348436181466438 72.859 8.968 C 72.16960716258536 8.580729402162131 71.39068220358709 8.381084625154605 70.6 8.389 C 69.81207656121688 8.380311526853385 69.03585735227291 8.5800586032883 68.35 8.968 C 67.675136336578 9.35052344166691 67.11955519760184 9.912681553627841 66.74499999999999 10.592000000000002 C 66.353 11.289 66.157 12.085 66.157 12.982000000000001 C 66.157 13.877 66.353 14.674000000000001 66.74499999999999 15.371 C 67.11982748021808 16.05045175667363 67.6757679575909 16.612623198300952 68.35099999999998 16.995 C 69.03665985151567 17.382421828192594 69.81250563663443 17.581816609783807 70.59999999999998 17.573 z M 79.83 6.3 L 82.35 6.3 L 82.35 12.030000000000001 L 82.5 12.030000000000001 L 87.39 6.300000000000001 L 90.433 6.300000000000001 L 90.433 6.449000000000001 L 85.6 11.973 L 90.93799999999999 19.515 L 90.93799999999999 19.664 L 87.85799999999999 19.664 L 83.86399999999999 13.971000000000002 L 82.35199999999999 15.744000000000002 L 82.35199999999999 19.664 L 79.832 19.664 L 79.832 6.299 z M 93.779 6 L 97.027 6 L 100.57300000000001 15.39 L 100.72300000000001 15.39 L 104.268 6 L 107.535 6 L 107.535 19.365000000000002 L 105.03399999999999 19.365000000000002 L 105.03399999999999 12.776000000000002 L 105.184 10.555000000000001 L 105.03399999999999 10.555000000000001 L 101.636 19.365000000000002 L 99.676 19.365000000000002 L 96.26 10.555000000000001 L 96.111 10.555000000000001 L 96.26100000000001 12.776000000000002 L 96.26100000000001 19.366 L 93.778 19.366 L 93.778 6 z M 114.579 6 L 117.473 6 L 122.494 19.365000000000002 L 119.713 19.365000000000002 L 118.59299999999999 16.173000000000002 L 113.478 16.173000000000002 L 112.35799999999999 19.365000000000002 L 109.57699999999998 19.365000000000002 L 114.579 6 z M 117.77199999999999 13.859 L 116.59599999999999 10.499 L 116.10999999999999 8.893 L 115.96099999999998 8.893 L 115.47599999999998 10.499 L 114.28099999999999 13.859 L 117.77099999999999 13.859 z M 124.553 6 L 129.425 6 C 130.29600000000002 6 131.071 6.18 131.74900000000002 6.541 C 132.42700000000002 6.902 132.95300000000003 7.4030000000000005 133.32600000000002 8.044 C 133.70000000000002 8.684000000000001 133.88600000000002 9.41 133.88600000000002 10.219000000000001 C 133.88600000000002 11.077000000000002 133.616 11.839000000000002 133.074 12.505 C 132.53898997921033 13.166434661782526 131.8316328942086 13.667190876067007 131.03 13.952000000000002 L 131.012 14.082000000000003 L 134.596 19.216 L 134.596 19.366 L 131.702 19.366 L 128.249 14.344 L 127.073 14.344 L 127.073 19.365 L 124.553 19.365 L 124.553 6 z M 129.406 12.030000000000001 C 129.979 12.030000000000001 130.446 11.855 130.806 11.507000000000001 C 131.167 11.158000000000001 131.348 10.717000000000002 131.348 10.181000000000001 C 131.348 9.671000000000001 131.17600000000002 9.236 130.834 8.875 C 130.492 8.514 130.028 8.333 129.44400000000002 8.333 L 127.07300000000002 8.333 L 127.07300000000002 12.029 L 129.40600000000003 12.029 z M 136.636 6.000000000000001 L 139.156 6.000000000000001 L 139.156 11.73 L 139.306 11.73 L 144.196 6 L 147.239 6 L 147.239 6.15 L 142.404 11.675 L 147.744 19.216 L 147.744 19.366 L 144.664 19.366 L 140.66799999999998 13.672 L 139.15599999999998 15.445 L 139.15599999999998 19.365000000000002 L 136.63599999999997 19.365000000000002 L 136.63599999999997 6 z" stroke-linecap="round" />
</g>
		<g transform="matrix(1 0 0 1 -61.37 0)"  >
<circle style="stroke: none; stroke-width: 1; stroke-dasharray: none; stroke-linecap: butt; stroke-dashoffset: 0; stroke-linejoin: miter; stroke-miterlimit: 4; fill: rgb(82,103,223); fill-rule: evenodd; opacity: 1;" vector-effect="non-scaling-stroke"  cx="0" cy="0" r="12.5" />
</g>
		<g transform="matrix(1 0 0 1 -61.33 0.5)"  >
<path style="stroke: none; stroke-width: 1; stroke-dasharray: none; stroke-linecap: butt; stroke-dashoffset: 0; stroke-linejoin: miter; stroke-miterlimit: 4; fill: rgb(255,255,255); fill-rule: evenodd; opacity: 1;" vector-effect="non-scaling-stroke"  transform=" translate(-12.54, -13)" d="M 9 9 L 9 19 L 12.54 15.56 L 16.078 19 L 16.078 9 C 16.078 7.8954305003384135 15.182569499661586 7 14.078 7 L 11 7 C 9.895430500338414 7 9 7.8954305003384135 9 9 z" stroke-linecap="round" />
</g>
</g>
</g>
</svg>